<svg width="169" height="152" viewBox="0 0 169 152" fill="none" xmlns="http://www.w3.org/2000/svg">
<path opacity="0.87" d="M-4 9.99999C-4 4.47715 0.477153 0 6 0H158.838C164.361 0 168.838 4.47715 168.838 10V141.766C168.838 147.289 164.361 151.766 158.838 151.766H6C0.477158 151.766 -4 147.289 -4 141.766V9.99999Z" fill="black"/>
<path d="M118.173 19.3239C114.644 16.2254 108.955 16.2254 105.426 19.3239L45.5811 71.8729C42.7725 74.3391 42.7725 78.323 45.5811 80.7892L105.426 133.338C108.955 136.437 114.644 136.437 118.173 133.338C121.702 130.24 121.702 125.244 118.173 122.145L74.5801 83.8144C70.0491 79.8303 70.0515 72.7713 74.5853 68.7903L118.245 30.4534C121.702 27.4181 121.702 22.3592 118.173 19.3239Z" fill="white"/>
</svg>
