<svg width="146" height="146" viewBox="0 0 146 146" fill="none" xmlns="http://www.w3.org/2000/svg">
<path d="M0 10C0 4.47715 4.47715 0 10 0H136C141.523 0 146 4.47715 146 10V136C146 141.523 141.523 146 136 146H10C4.47715 146 0 141.523 0 136V10Z" fill="white"/>
<path d="M109.5 28.3335C109.5 33.8563 105.023 38.3335 99.5 38.3335H95.0487H91.2108C87.9069 38.3335 85.2284 41.012 85.2284 44.3161V55.306C85.2284 60.8289 89.7056 65.306 95.2284 65.306H97.844C103.973 65.306 108.66 70.769 107.728 76.8265L107.25 79.9337C106.499 84.8121 102.302 88.4132 97.366 88.4132H95.2284C89.7056 88.4132 85.2284 92.8904 85.2284 98.4132V120.801C85.2284 126.324 80.7513 130.801 75.2284 130.801H68.5372C63.0143 130.801 58.5372 126.324 58.5372 120.801V98.4132C58.5372 92.8904 54.06 88.4132 48.5372 88.4132H46.5C40.9772 88.4132 36.5 83.9361 36.5 78.4132V75.306C36.5 69.7832 40.9772 65.306 46.5 65.306H48.3814C53.8537 65.306 58.3096 60.9076 58.3806 55.4358L58.5372 43.3723L58.4967 39.3902C58.3632 26.1744 68.9683 15.3526 82.184 15.219C82.2646 15.2182 82.3452 15.2178 82.4258 15.2178H99.5C105.023 15.2178 109.5 19.6949 109.5 25.2178V28.3335Z" fill="#2F88FF"/>
</svg>
