<svg width="173" height="152" viewBox="0 0 173 152" fill="none" xmlns="http://www.w3.org/2000/svg">
<path d="M0.162109 9.99999C0.162109 4.47715 4.63926 0 10.1621 0H163C168.523 0 173 4.47715 173 10V141.766C173 147.289 168.523 151.766 163 151.766H10.1621C4.63927 151.766 0.162109 147.289 0.162109 141.766V9.99999Z" fill="black"/>
<path d="M51.9077 18.8364C47.3719 22.8192 47.3089 29.9375 51.8447 33.9203L91.478 68.7216C96.0138 72.7044 96.0138 79.7673 91.478 83.7501L51.8447 118.551C47.3089 122.534 47.3719 129.653 51.9077 133.635C55.6822 136.95 61.3781 136.992 65.1526 133.678L122.013 83.7501C126.548 79.7673 126.548 72.7044 122.013 68.7216L65.1526 18.7937C61.3781 15.4794 55.6822 15.5221 51.9077 18.8364Z" fill="white"/>
</svg>
