<svg width="0" height="0" class="hidden">
  <symbol xmlns="http://www.w3.org/2000/svg" viewBox="0 0 48 48" id="search">
    <path d="M39.75 43.35 26.3 29.95q-1.45 1.15-3.425 1.8-1.975.65-4.275.65-5.75 0-9.75-4t-4-9.65q0-5.65 4-9.65t9.7-4q5.65 0 9.625 4 3.975 4 3.975 9.65 0 2.25-.625 4.175-.625 1.925-1.875 3.625l13.5 13.4ZM18.55 27.7q3.75 0 6.325-2.625t2.575-6.325q0-3.75-2.575-6.35Q22.3 9.8 18.55 9.8t-6.375 2.6Q9.55 15 9.55 18.75q0 3.7 2.625 6.325T18.55 27.7Z"></path>
  </symbol>
  <symbol fill="none" xmlns="http://www.w3.org/2000/svg" viewBox="0 0 96 96" id="phone">
    <g clip-path="url(#clip0_17_2)">
      <path d="M64 4H32C25.36 4 20 9.36 20 16V80C20 86.64 25.36 92 32 92H64C70.64 92 76 86.64 76 80V16C76 9.36 70.64 4 64 4ZM56 84H40V80H56V84ZM69 72H27V16H69V72Z" fill="black"></path>
    </g>
    <defs>
      <clipPath id="clip0_17_2">
        <rect width="96" height="96" fill="white"></rect>
      </clipPath>
    </defs>
  </symbol>
  <symbol fill="none" xmlns="http://www.w3.org/2000/svg" viewBox="0 0 173 152" id="next">
    <path d="M0.162109 9.99999C0.162109 4.47715 4.63926 0 10.1621 0H163C168.523 0 173 4.47715 173 10V141.766C173 147.289 168.523 151.766 163 151.766H10.1621C4.63927 151.766 0.162109 147.289 0.162109 141.766V9.99999Z" fill="black"></path>
    <path d="M51.9077 18.8364C47.3719 22.8192 47.3089 29.9375 51.8447 33.9203L91.478 68.7216C96.0138 72.7044 96.0138 79.7673 91.478 83.7501L51.8447 118.551C47.3089 122.534 47.3719 129.653 51.9077 133.635C55.6822 136.95 61.3781 136.992 65.1526 133.678L122.013 83.7501C126.548 79.7673 126.548 72.7044 122.013 68.7216L65.1526 18.7937C61.3781 15.4794 55.6822 15.5221 51.9077 18.8364Z" fill="white"></path>
  </symbol>
  <symbol fill="none" xmlns="http://www.w3.org/2000/svg" viewBox="0 0 156 137" id="menu">
    <path d="M19.6973 102.75H136.096V91.3333H19.6973V102.75ZM19.6973 74.2083H136.096V62.7917H19.6973V74.2083ZM19.6973 34.25V45.6667H136.096V34.25H19.6973Z" fill="black"></path>
  </symbol>
  <symbol fill="none" xmlns="http://www.w3.org/2000/svg" viewBox="0 0 169 152" id="back">
    <path opacity="0.87" d="M-4 9.99999C-4 4.47715 0.477153 0 6 0H158.838C164.361 0 168.838 4.47715 168.838 10V141.766C168.838 147.289 164.361 151.766 158.838 151.766H6C0.477158 151.766 -4 147.289 -4 141.766V9.99999Z" fill="black"></path>
    <path d="M118.173 19.3239C114.644 16.2254 108.955 16.2254 105.426 19.3239L45.5811 71.8729C42.7725 74.3391 42.7725 78.323 45.5811 80.7892L105.426 133.338C108.955 136.437 114.644 136.437 118.173 133.338C121.702 130.24 121.702 125.244 118.173 122.145L74.5801 83.8144C70.0491 79.8303 70.0515 72.7713 74.5853 68.7903L118.245 30.4534C121.702 27.4181 121.702 22.3592 118.173 19.3239Z" fill="white"></path>
  </symbol>
</svg>