<svg width="0" height="0" class="hidden">
  <symbol fill="none" xmlns="http://www.w3.org/2000/svg" viewBox="0 0 146 146" id="youtube">
    <path d="M0 10C0 4.47715 4.47715 0 10 0H136C141.523 0 146 4.47715 146 10V136C146 141.523 141.523 146 136 146H10C4.47715 146 0 141.523 0 136V10Z" fill="white"></path>
    <path d="M33.6507 31.677C50.5113 30.8366 63.6254 30.4165 72.9928 30.4165C82.3612 30.4165 95.4799 30.8369 112.349 31.6773C121.48 32.1323 128.866 39.2735 129.627 48.3842C130.399 57.6127 130.785 65.7406 130.785 72.7681C130.785 79.8819 130.389 88.123 129.599 97.492C128.84 106.49 121.615 113.579 112.604 114.168C98.1824 115.112 84.9785 115.583 72.9928 115.583C61.0087 115.583 47.8097 115.112 33.3958 114.169C24.3885 113.58 17.1651 106.494 16.4021 97.5005C15.6015 88.0616 15.2012 79.8174 15.2012 72.7681C15.2012 65.8036 15.5919 57.6729 16.3734 48.3757C17.139 39.2687 24.5229 32.132 33.6507 31.677Z" fill="#FF2F2F"></path>
    <path d="M63.875 59.6444V86.4017C63.875 87.8413 65.0424 89.0087 66.482 89.0087C66.9933 89.0087 67.4934 88.8584 67.9198 88.5765L87.9875 75.3133C89.1887 74.5194 89.5187 72.9018 88.7248 71.7007C88.535 71.4136 88.2902 71.1666 88.0045 70.9746L67.9368 57.4809C66.7421 56.6776 65.1221 56.9948 64.3185 58.1899C64.0295 58.62 63.875 59.1264 63.875 59.6444Z" fill="#43CCF8"></path>
  </symbol>
  <symbol fill="none" xmlns="http://www.w3.org/2000/svg" viewBox="0 0 146 146" id="twitter">
    <path d="M0 10C0 4.47715 4.47715 0 10 0H136C141.523 0 146 4.47715 146 10V136C146 141.523 141.523 146 136 146H10C4.47715 146 0 141.523 0 136V10Z" fill="white"></path>
    <path d="M42.2444 104.274C37.2252 106.372 37.4227 119.114 42.628 120.695C58.2584 125.443 77.7324 127.633 93.7532 117.624C122.509 99.6567 122.373 69.3231 122.294 53.6042C122.286 52.1135 122.594 50.6364 123.391 49.3769C124.683 47.3369 126.271 45.4406 127.645 42.7968C130.473 37.3547 122.276 33.8244 116.193 33.0422C114.549 32.8307 113.4 31.7659 112.384 30.455C107.041 23.5573 99.9786 20.5496 91.1966 21.4318C78.5881 22.6985 72.9629 33.6631 72.7764 48.6275C72.7256 52.705 70.6866 56.746 66.7465 57.7972C56.1972 60.6118 46.9126 56.739 39.3366 50.4822C32.5397 44.8688 20.7418 46.8953 20.9102 55.7089C21.0171 61.3006 21.9718 67.1797 24.3251 73.2927C27.4721 81.4678 34.1519 88.6326 44.3646 94.787C47.7221 96.8103 45.8611 102.762 42.2444 104.274Z" fill="#2F88FF"></path>
  </symbol>
  <symbol fill="none" xmlns="http://www.w3.org/2000/svg" viewBox="0 0 146 146" id="tiktok">
    <path d="M0 10C0 4.47715 4.47715 0 10 0H136C141.523 0 146 4.47715 146 10V136C146 141.523 141.523 146 136 146H10C4.47715 146 0 141.523 0 136V10Z" fill="white"></path>
    <path d="M64.973 70.6396C64.973 65.4055 60.8377 57.897 55.637 58.4873C42.6631 59.9601 33.3249 66.2594 27.6223 77.3855C17.1387 97.8394 25.803 131.308 60.7779 131.308C95.7525 131.308 96.7645 97.5122 96.7645 93.9717C96.7645 92.2957 96.7645 85.1573 96.7645 72.5564C96.7645 64.6749 105.479 60.1259 113.053 62.3042C113.963 62.5657 114.84 62.776 115.686 62.9351C115.902 62.9758 116.115 63.0155 116.324 63.0543C121.455 64.004 125.477 60.1952 125.477 54.977V53.3896C125.477 48.3297 121.629 44.2456 116.817 42.6802C115.527 42.2604 114.307 41.7835 113.158 41.2496C109.27 39.443 102.524 35.2373 99.3723 29.1205C99.0806 28.5544 97.6599 16.3484 97.6591 15.7115C97.6587 15.4282 97.4283 14.7114 97.145 14.7114H85.9936C80.4759 14.7114 76.0009 19.1936 75.9941 24.7112C75.9431 66.4907 75.9473 89.5774 76.0069 93.9717C76.1036 101.071 70.5961 111.002 59.4295 111.002C48.2627 111.002 42.7551 101.079 42.7551 94.6785C42.7551 90.7603 44.1008 85.0809 49.6643 80.8752C51.193 79.7196 52.9966 78.8857 55.2313 78.3234C60.4854 77.0015 64.973 76.0574 64.973 70.6396Z" fill="black"></path>
  </symbol>
  <symbol fill="none" xmlns="http://www.w3.org/2000/svg" viewBox="0 0 146 146" id="fb">
    <path d="M0 10C0 4.47715 4.47715 0 10 0H136C141.523 0 146 4.47715 146 10V136C146 141.523 141.523 146 136 146H10C4.47715 146 0 141.523 0 136V10Z" fill="white"></path>
    <path d="M109.5 28.3335C109.5 33.8563 105.023 38.3335 99.5 38.3335H95.0487H91.2108C87.9069 38.3335 85.2284 41.012 85.2284 44.3161V55.306C85.2284 60.8289 89.7056 65.306 95.2284 65.306H97.844C103.973 65.306 108.66 70.769 107.728 76.8265L107.25 79.9337C106.499 84.8121 102.302 88.4132 97.366 88.4132H95.2284C89.7056 88.4132 85.2284 92.8904 85.2284 98.4132V120.801C85.2284 126.324 80.7513 130.801 75.2284 130.801H68.5372C63.0143 130.801 58.5372 126.324 58.5372 120.801V98.4132C58.5372 92.8904 54.06 88.4132 48.5372 88.4132H46.5C40.9772 88.4132 36.5 83.9361 36.5 78.4132V75.306C36.5 69.7832 40.9772 65.306 46.5 65.306H48.3814C53.8537 65.306 58.3096 60.9076 58.3806 55.4358L58.5372 43.3723L58.4967 39.3902C58.3632 26.1744 68.9683 15.3526 82.184 15.219C82.2646 15.2182 82.3452 15.2178 82.4258 15.2178H99.5C105.023 15.2178 109.5 19.6949 109.5 25.2178V28.3335Z" fill="#2F88FF"></path>
  </symbol>
  <symbol fill="none" xmlns="http://www.w3.org/2000/svg" viewBox="0 0 96 96" id="Email">
    <g clip-path="url(#clip0_17_15)">
      <path d="M80 16H16C11.6 16 8.04 19.6 8.04 24L8 72C8 76.4 11.6 80 16 80H80C84.4 80 88 76.4 88 72V24C88 19.6 84.4 16 80 16ZM80 32L48 52L16 32V24L48 44L80 24V32Z" fill="#F68B1E"></path>
    </g>
    <defs>
      <clipPath id="clip0_17_15">
        <rect width="96" height="96" fill="white"></rect>
      </clipPath>
    </defs>
  </symbol>
  <symbol xmlns="http://www.w3.org/2000/svg" viewBox="0 0 48 48" id="search">
    <path d="M39.75 43.35 26.3 29.95q-1.45 1.15-3.425 1.8-1.975.65-4.275.65-5.75 0-9.75-4t-4-9.65q0-5.65 4-9.65t9.7-4q5.65 0 9.625 4 3.975 4 3.975 9.65 0 2.25-.625 4.175-.625 1.925-1.875 3.625l13.5 13.4ZM18.55 27.7q3.75 0 6.325-2.625t2.575-6.325q0-3.75-2.575-6.35Q22.3 9.8 18.55 9.8t-6.375 2.6Q9.55 15 9.55 18.75q0 3.7 2.625 6.325T18.55 27.7Z"></path>
  </symbol>
  <symbol fill="none" xmlns="http://www.w3.org/2000/svg" viewBox="0 0 96 96" id="phone">
    <g clip-path="url(#clip0_17_2)">
      <path d="M64 4H32C25.36 4 20 9.36 20 16V80C20 86.64 25.36 92 32 92H64C70.64 92 76 86.64 76 80V16C76 9.36 70.64 4 64 4ZM56 84H40V80H56V84ZM69 72H27V16H69V72Z" fill="black"></path>
    </g>
    <defs>
      <clipPath id="clip0_17_2">
        <rect width="96" height="96" fill="white"></rect>
      </clipPath>
    </defs>
  </symbol>
  <symbol fill="none" xmlns="http://www.w3.org/2000/svg" viewBox="0 0 173 152" id="next">
    <path d="M0.162109 9.99999C0.162109 4.47715 4.63926 0 10.1621 0H163C168.523 0 173 4.47715 173 10V141.766C173 147.289 168.523 151.766 163 151.766H10.1621C4.63927 151.766 0.162109 147.289 0.162109 141.766V9.99999Z" fill="black"></path>
    <path d="M51.9077 18.8364C47.3719 22.8192 47.3089 29.9375 51.8447 33.9203L91.478 68.7216C96.0138 72.7044 96.0138 79.7673 91.478 83.7501L51.8447 118.551C47.3089 122.534 47.3719 129.653 51.9077 133.635C55.6822 136.95 61.3781 136.992 65.1526 133.678L122.013 83.7501C126.548 79.7673 126.548 72.7044 122.013 68.7216L65.1526 18.7937C61.3781 15.4794 55.6822 15.5221 51.9077 18.8364Z" fill="white"></path>
  </symbol>
  <symbol fill="none" xmlns="http://www.w3.org/2000/svg" viewBox="0 0 156 137" id="menu">
    <path d="M19.6973 102.75H136.096V91.3333H19.6973V102.75ZM19.6973 74.2083H136.096V62.7917H19.6973V74.2083ZM19.6973 34.25V45.6667H136.096V34.25H19.6973Z" fill="black"></path>
  </symbol>
  <symbol fill="none" xmlns="http://www.w3.org/2000/svg" viewBox="0 0 169 152" id="back">
    <path opacity="0.87" d="M-4 9.99999C-4 4.47715 0.477153 0 6 0H158.838C164.361 0 168.838 4.47715 168.838 10V141.766C168.838 147.289 164.361 151.766 158.838 151.766H6C0.477158 151.766 -4 147.289 -4 141.766V9.99999Z" fill="black"></path>
    <path d="M118.173 19.3239C114.644 16.2254 108.955 16.2254 105.426 19.3239L45.5811 71.8729C42.7725 74.3391 42.7725 78.323 45.5811 80.7892L105.426 133.338C108.955 136.437 114.644 136.437 118.173 133.338C121.702 130.24 121.702 125.244 118.173 122.145L74.5801 83.8144C70.0491 79.8303 70.0515 72.7713 74.5853 68.7903L118.245 30.4534C121.702 27.4181 121.702 22.3592 118.173 19.3239Z" fill="white"></path>
  </symbol>
</svg>