<svg width="146" height="146" viewBox="0 0 146 146" fill="none" xmlns="http://www.w3.org/2000/svg">
<path d="M0 10C0 4.47715 4.47715 0 10 0H136C141.523 0 146 4.47715 146 10V136C146 141.523 141.523 146 136 146H10C4.47715 146 0 141.523 0 136V10Z" fill="white"/>
<path d="M64.973 70.6396C64.973 65.4055 60.8377 57.897 55.637 58.4873C42.6631 59.9601 33.3249 66.2594 27.6223 77.3855C17.1387 97.8394 25.803 131.308 60.7779 131.308C95.7525 131.308 96.7645 97.5122 96.7645 93.9717C96.7645 92.2957 96.7645 85.1573 96.7645 72.5564C96.7645 64.6749 105.479 60.1259 113.053 62.3042C113.963 62.5657 114.84 62.776 115.686 62.9351C115.902 62.9758 116.115 63.0155 116.324 63.0543C121.455 64.004 125.477 60.1952 125.477 54.977V53.3896C125.477 48.3297 121.629 44.2456 116.817 42.6802C115.527 42.2604 114.307 41.7835 113.158 41.2496C109.27 39.443 102.524 35.2373 99.3723 29.1205C99.0806 28.5544 97.6599 16.3484 97.6591 15.7115C97.6587 15.4282 97.4283 14.7114 97.145 14.7114H85.9936C80.4759 14.7114 76.0009 19.1936 75.9941 24.7112C75.9431 66.4907 75.9473 89.5774 76.0069 93.9717C76.1036 101.071 70.5961 111.002 59.4295 111.002C48.2627 111.002 42.7551 101.079 42.7551 94.6785C42.7551 90.7603 44.1008 85.0809 49.6643 80.8752C51.193 79.7196 52.9966 78.8857 55.2313 78.3234C60.4854 77.0015 64.973 76.0574 64.973 70.6396Z" fill="black"/>
</svg>
