<svg width="146" height="146" viewBox="0 0 146 146" fill="none" xmlns="http://www.w3.org/2000/svg">
<path d="M0 10C0 4.47715 4.47715 0 10 0H136C141.523 0 146 4.47715 146 10V136C146 141.523 141.523 146 136 146H10C4.47715 146 0 141.523 0 136V10Z" fill="white"/>
<path d="M42.2444 104.274C37.2252 106.372 37.4227 119.114 42.628 120.695C58.2584 125.443 77.7324 127.633 93.7532 117.624C122.509 99.6567 122.373 69.3231 122.294 53.6042C122.286 52.1135 122.594 50.6364 123.391 49.3769C124.683 47.3369 126.271 45.4406 127.645 42.7968C130.473 37.3547 122.276 33.8244 116.193 33.0422C114.549 32.8307 113.4 31.7659 112.384 30.455C107.041 23.5573 99.9786 20.5496 91.1966 21.4318C78.5881 22.6985 72.9629 33.6631 72.7764 48.6275C72.7256 52.705 70.6866 56.746 66.7465 57.7972C56.1972 60.6118 46.9126 56.739 39.3366 50.4822C32.5397 44.8688 20.7418 46.8953 20.9102 55.7089C21.0171 61.3006 21.9718 67.1797 24.3251 73.2927C27.4721 81.4678 34.1519 88.6326 44.3646 94.787C47.7221 96.8103 45.8611 102.762 42.2444 104.274Z" fill="#2F88FF"/>
</svg>
