<svg width="146" height="146" viewBox="0 0 146 146" fill="none" xmlns="http://www.w3.org/2000/svg">
<path d="M0 10C0 4.47715 4.47715 0 10 0H136C141.523 0 146 4.47715 146 10V136C146 141.523 141.523 146 136 146H10C4.47715 146 0 141.523 0 136V10Z" fill="white"/>
<path d="M33.6507 31.677C50.5113 30.8366 63.6254 30.4165 72.9928 30.4165C82.3612 30.4165 95.4799 30.8369 112.349 31.6773C121.48 32.1323 128.866 39.2735 129.627 48.3842C130.399 57.6127 130.785 65.7406 130.785 72.7681C130.785 79.8819 130.389 88.123 129.599 97.492C128.84 106.49 121.615 113.579 112.604 114.168C98.1824 115.112 84.9785 115.583 72.9928 115.583C61.0087 115.583 47.8097 115.112 33.3958 114.169C24.3885 113.58 17.1651 106.494 16.4021 97.5005C15.6015 88.0616 15.2012 79.8174 15.2012 72.7681C15.2012 65.8036 15.5919 57.6729 16.3734 48.3757C17.139 39.2687 24.5229 32.132 33.6507 31.677Z" fill="#FF2F2F"/>
<path d="M63.875 59.6444V86.4017C63.875 87.8413 65.0424 89.0087 66.482 89.0087C66.9933 89.0087 67.4934 88.8584 67.9198 88.5765L87.9875 75.3133C89.1887 74.5194 89.5187 72.9018 88.7248 71.7007C88.535 71.4136 88.2902 71.1666 88.0045 70.9746L67.9368 57.4809C66.7421 56.6776 65.1221 56.9948 64.3185 58.1899C64.0295 58.62 63.875 59.1264 63.875 59.6444Z" fill="#43CCF8"/>
</svg>
